Gulax-Regular.ufo
<glyph name="quotedbl" format="2">
	<advance width="319"/>
	<unicode hex="0022"/>
	<note>
		quotedbl
	</note>
	<outline>
		<contour>
			<point x="55" y="389" type="line"/>
			<point x="128" y="389" type="line"/>
			<point x="138" y="620" type="line"/>
			<point x="45" y="620" type="line"/>
		</contour>
		<contour>
			<point x="181" y="620" type="line"/>
			<point x="191" y="389" type="line"/>
			<point x="264" y="389" type="line"/>
			<point x="274" y="620" type="line"/>
		</contour>
	</outline>
</glyph>
<glyph name="quotesingle" format="2">
	<advance width="184"/>
	<unicode hex="0027"/>
	<note>
		quotesingle
	</note>
	<outline>
		<contour>
			<point x="45" y="619" type="line"/>
			<point x="55" y="387" type="line"/>
			<point x="129" y="387" type="line"/>
			<point x="139" y="619" type="line"/>
		</contour>
	</outline>
</glyph>
<glyph name="parenleft" format="2">
	<advance width="284"/>
	<unicode hex="0028"/>
	<note>
		parenleft
	</note>
	<outline>
		<contour>
			<point x="40" y="582"/>
			<point x="40" y="469" type="curve" smooth="yes"/>
			<point x="40" y="98" type="line" smooth="yes"/>
			<point x="40" y="-15"/>
			<point x="99" y="-81"/>
			<point x="210" y="-113" type="curve"/>
			<point x="235" y="-12" type="line"/>
			<point x="162" y="0"/>
			<point x="133" y="30"/>
			<point x="133" y="98" type="curve" smooth="yes"/>
			<point x="133" y="469" type="line" smooth="yes"/>
			<point x="133" y="540"/>
			<point x="166" y="570"/>
			<point x="235" y="579" type="curve"/>
			<point x="210" y="680" type="line"/>
			<point x="97" y="649"/>
		</contour>
	</outline>
</glyph>
<glyph name="plus" format="2">
	<advance width="484"/>
	<unicode hex="002B"/>
	<note>
		plus
	</note>
	<outline>
		<contour>
			<point x="283" y="328" type="line"/>
			<point x="283" y="470" type="line"/>
			<point x="202" y="470" type="line"/>
			<point x="202" y="328" type="line"/>
			<point x="64" y="328" type="line"/>
			<point x="64" y="247" type="line"/>
			<point x="202" y="247" type="line"/>
			<point x="202" y="112" type="line"/>
			<point x="283" y="112" type="line"/>
			<point x="283" y="247" type="line"/>
			<point x="422" y="247" type="line"/>
			<point x="422" y="328" type="line"/>
		</contour>
	</outline>
</glyph>
<glyph name="comma" format="2">
	<advance width="190"/>
	<unicode hex="002C"/>
	<note>
		comma
	</note>
	<outline>
		<contour>
			<point x="147" y="101" type="curve"/>
			<point x="56" y="101" type="line"/>
			<point x="54" y="33"/>
			<point x="34" y="-35"/>
			<point x="-10" y="-91" type="curve"/>
			<point x="55" y="-130" type="line"/>
			<point x="109" y="-64"/>
			<point x="143" y="11"/>
		</contour>
	</outline>
</glyph>
<glyph name="four" format="2">
	<advance width="491"/>
	<unicode hex="0034"/>
	<note>
		four
	</note>
	<outline>
		<contour>
			<point x="418" y="0" type="line"/>
			<point x="418" y="408" type="line"/>
			<point x="324" y="408" type="line"/>
			<point x="324" y="221" type="line"/>
			<point x="141" y="221" type="line"/>
			<point x="157" y="386"/>
			<point x="226" y="507"/>
			<point x="412" y="549" type="curve"/>
			<point x="377" y="637" type="line"/>
			<point x="157" y="593"/>
			<point x="28" y="400"/>
			<point x="35" y="127" type="curve"/>
			<point x="324" y="127" type="line"/>
			<point x="324" y="0" type="line"/>
		</contour>
	</outline>
</glyph>
<glyph name="six" format="2">
	<advance width="517"/>
	<unicode hex="0036"/>
	<note>
		six
	</note>
	<outline>
		<contour>
			<point x="270" y="389" type="curve"/>
			<point x="270" y="-9" type="line"/>
			<point x="380" y="-9"/>
			<point x="469" y="80"/>
			<point x="469" y="190" type="curve" smooth="yes"/>
			<point x="469" y="300"/>
			<point x="380" y="389"/>
		</contour>
		<contour>
			<point x="270" y="297" type="line"/>
			<point x="329" y="297"/>
			<point x="377" y="249"/>
			<point x="377" y="190" type="curve" smooth="yes"/>
			<point x="377" y="131"/>
			<point x="329" y="83"/>
			<point x="270" y="83" type="curve"/>
		</contour>
		<contour>
			<point x="270" y="389" type="line"/>
			<point x="160" y="389"/>
			<point x="71" y="300"/>
			<point x="71" y="190" type="curve" smooth="yes"/>
			<point x="71" y="80"/>
			<point x="160" y="-9"/>
			<point x="270" y="-9" type="curve"/>
		</contour>
		<contour>
			<point x="270" y="297" type="curve"/>
			<point x="270" y="83" type="line"/>
			<point x="211" y="83"/>
			<point x="163" y="131"/>
			<point x="163" y="190" type="curve" smooth="yes"/>
			<point x="163" y="249"/>
			<point x="211" y="297"/>
		</contour>
		<contour>
			<point x="474" y="496" type="line"/>
			<point x="439" y="575"/>
			<point x="360" y="630"/>
			<point x="268" y="630" type="curve" smooth="yes"/>
			<point x="144" y="630"/>
			<point x="43" y="529"/>
			<point x="43" y="405" type="curve" smooth="yes"/>
			<point x="43" y="334"/>
			<point x="76" y="271"/>
			<point x="127" y="229" type="curve"/>
			<point x="177" y="306" type="line"/>
			<point x="151" y="331"/>
			<point x="134" y="366"/>
			<point x="134" y="405" type="curve" smooth="yes"/>
			<point x="134" y="479"/>
			<point x="194" y="539"/>
			<point x="268" y="539" type="curve" smooth="yes"/>
			<point x="325" y="539"/>
			<point x="374" y="503"/>
			<point x="393" y="452" type="curve"/>
		</contour>
	</outline>
</glyph>
<glyph name="semicolon" format="2">
	<advance width="190"/>
	<unicode hex="003B"/>
	<note>
		semicolon
	</note>
	<outline>
		<contour>
			<point x="148" y="337" type="line"/>
			<point x="47" y="337" type="line"/>
			<point x="47" y="235" type="line"/>
			<point x="148" y="235" type="line"/>
		</contour>
		<contour>
			<point x="147" y="103" type="curve"/>
			<point x="56" y="103" type="line"/>
			<point x="54" y="35"/>
			<point x="34" y="-35"/>
			<point x="-10" y="-91" type="curve"/>
			<point x="55" y="-130" type="line"/>
			<point x="109" y="-64"/>
			<point x="143" y="13"/>
		</contour>
	</outline>
</glyph>
<glyph name="question" format="2">
	<advance width="492"/>
	<unicode hex="003F"/>
	<note>
		question
	</note>
	<outline>
		<contour>
			<point x="453" y="429" type="curve" smooth="yes"/>
			<point x="453" y="541"/>
			<point x="362" y="630"/>
			<point x="251" y="630" type="curve" smooth="yes"/>
			<point x="140" y="630"/>
			<point x="50" y="540"/>
			<point x="50" y="429" type="curve" smooth="yes"/>
			<point x="50" y="412" type="line"/>
			<point x="145" y="412" type="line"/>
			<point x="145" y="429" type="line" smooth="yes"/>
			<point x="145" y="487"/>
			<point x="193" y="535"/>
			<point x="251" y="535" type="curve" smooth="yes"/>
			<point x="309" y="535"/>
			<point x="358" y="487"/>
			<point x="358" y="429" type="curve" smooth="yes"/>
			<point x="358" y="370"/>
			<point x="310" y="322"/>
			<point x="251" y="322" type="curve" smooth="yes"/>
			<point x="214" y="322"/>
			<point x="189" y="338"/>
			<point x="160" y="373" type="curve"/>
			<point x="84" y="275"/>
			<point x="60" y="215"/>
			<point x="51" y="76" type="curve"/>
			<point x="146" y="76" type="line"/>
			<point x="150" y="144"/>
			<point x="160" y="195"/>
			<point x="183" y="240" type="curve"/>
			<point x="203" y="231"/>
			<point x="226" y="227"/>
			<point x="251" y="227" type="curve" smooth="yes"/>
			<point x="363" y="227"/>
			<point x="453" y="319"/>
		</contour>
		<contour>
			<point x="302" y="102" type="line"/>
			<point x="201" y="102" type="line"/>
			<point x="201" y="0" type="line"/>
			<point x="302" y="0" type="line"/>
		</contour>
	</outline>
</glyph>
<glyph name="at" format="2">
	<advance width="698"/>
	<unicode hex="0040"/>
	<note>
		at
	</note>
	<outline>
		<contour>
			<point x="468" y="353" type="line"/>
			<point x="468" y="443" type="line"/>
			<point x="436" y="443" type="line" smooth="yes"/>
			<point x="301" y="443"/>
			<point x="228" y="351"/>
			<point x="228" y="256" type="curve" smooth="yes"/>
			<point x="228" y="159"/>
			<point x="302" y="76"/>
			<point x="426" y="76" type="curve" smooth="yes"/>
			<point x="547" y="76"/>
			<point x="625" y="151"/>
			<point x="625" y="285" type="curve" smooth="yes"/>
			<point x="625" y="620" type="line"/>
			<point x="407" y="620" type="line" smooth="yes"/>
			<point x="206" y="620"/>
			<point x="43" y="458"/>
			<point x="43" y="258" type="curve" smooth="yes"/>
			<point x="43" y="56"/>
			<point x="205" y="-110"/>
			<point x="454" y="-103" type="curve" smooth="yes"/>
			<point x="565" y="-100" type="line"/>
			<point x="585" y="-10" type="line"/>
			<point x="454" y="-13" type="line" smooth="yes"/>
			<point x="260" y="-17"/>
			<point x="141" y="111"/>
			<point x="141" y="258" type="curve" smooth="yes"/>
			<point x="141" y="404"/>
			<point x="260" y="530"/>
			<point x="407" y="530" type="curve" smooth="yes"/>
			<point x="527" y="530" type="line"/>
			<point x="527" y="265" type="line" smooth="yes"/>
			<point x="527" y="187"/>
			<point x="477" y="162"/>
			<point x="426" y="162" type="curve" smooth="yes"/>
			<point x="366" y="162"/>
			<point x="326" y="203"/>
			<point x="326" y="261" type="curve" smooth="yes"/>
			<point x="326" y="302"/>
			<point x="356" y="353"/>
			<point x="427" y="353" type="curve" smooth="yes"/>
		</contour>
	</outline>
</glyph>
<glyph name="C" format="2">
	<advance width="497"/>
	<unicode hex="0043"/>
	<anchor x="265" y="620" name="top"/>
	<anchor x="264" y="0" name="bottom"/>
	<note>
		C
	</note>
	<outline>
		<contour>
			<point x="160" y="90" type="line"/>
			<point x="160" y="431" type="line" smooth="yes"/>
			<point x="160" y="502"/>
			<point x="203" y="540"/>
			<point x="264" y="540" type="curve" smooth="yes"/>
			<point x="311" y="540"/>
			<point x="351" y="516"/>
			<point x="374" y="451" type="curve"/>
			<point x="462" y="492" type="line"/>
			<point x="426" y="584"/>
			<point x="350" y="630"/>
			<point x="265" y="630" type="curve" smooth="yes"/>
			<point x="137" y="630"/>
			<point x="65" y="551"/>
			<point x="65" y="438" type="curve" smooth="yes"/>
			<point x="65" y="0" type="line"/>
			<point x="448" y="0" type="line"/>
			<point x="448" y="190" type="line"/>
			<point x="363" y="190" type="line"/>
			<point x="363" y="90" type="line"/>
		</contour>
	</outline>
</glyph>
<glyph name="D" format="2">
	<advance width="550"/>
	<unicode hex="0044"/>
	<anchor x="252" y="620" name="top"/>
	<note>
		D
	</note>
	<outline>
		<contour>
			<point x="302" y="621" type="curve" smooth="yes"/>
			<point x="73" y="621" type="line"/>
			<point x="73" y="0" type="line"/>
			<point x="300" y="0" type="line" smooth="yes"/>
			<point x="394" y="0"/>
			<point x="485" y="60"/>
			<point x="485" y="200" type="curve" smooth="yes"/>
			<point x="485" y="421" type="line" smooth="yes"/>
			<point x="485" y="560"/>
			<point x="395" y="621"/>
		</contour>
		<contour>
			<point x="390" y="424" type="curve" smooth="yes"/>
			<point x="390" y="195" type="line" smooth="yes"/>
			<point x="390" y="122"/>
			<point x="344" y="90"/>
			<point x="300" y="90" type="curve" smooth="yes"/>
			<point x="168" y="90" type="line"/>
			<point x="168" y="531" type="line"/>
			<point x="293" y="531" type="line" smooth="yes"/>
			<point x="340" y="531"/>
			<point x="390" y="496"/>
		</contour>
	</outline>
</glyph>
<glyph name="H" format="2">
	<advance width="566"/>
	<unicode hex="0048"/>
	<note>
		H
	</note>
	<outline>
		<contour>
			<point x="398" y="619" type="line"/>
			<point x="398" y="0" type="line"/>
			<point x="493" y="0" type="line"/>
			<point x="493" y="619" type="line"/>
		</contour>
		<contour>
			<point x="166" y="0" type="line"/>
			<point x="169" y="619" type="line"/>
			<point x="73" y="619" type="line"/>
			<point x="73" y="0" type="line"/>
		</contour>
		<contour>
			<point x="398" y="417" type="line"/>
			<point x="398" y="353"/>
			<point x="347" y="302"/>
			<point x="283" y="302" type="curve" smooth="yes"/>
			<point x="219" y="302"/>
			<point x="168" y="353"/>
			<point x="168" y="417" type="curve"/>
			<point x="83" y="422" type="line"/>
			<point x="83" y="305"/>
			<point x="166" y="212"/>
			<point x="283" y="212" type="curve" smooth="yes"/>
			<point x="399" y="212"/>
			<point x="483" y="306"/>
			<point x="483" y="422" type="curve"/>
		</contour>
	</outline>
</glyph>
<glyph name="K" format="2">
	<advance width="548"/>
	<unicode hex="004B"/>
	<note>
		K
	</note>
	<outline>
		<contour>
			<point x="352" y="313" type="line"/>
			<point x="435" y="353"/>
			<point x="473" y="469"/>
			<point x="473" y="615" type="curve" smooth="yes"/>
			<point x="473" y="622" type="line"/>
			<point x="380" y="622" type="line"/>
			<point x="380" y="615" type="line" smooth="yes"/>
			<point x="380" y="443"/>
			<point x="316" y="318"/>
			<point x="168" y="318" type="curve"/>
			<point x="168" y="620" type="line"/>
			<point x="73" y="620" type="line"/>
			<point x="73" y="0" type="line"/>
			<point x="168" y="0" type="line"/>
			<point x="168" y="234" type="line"/>
			<point x="370" y="234" type="line"/>
			<point x="396" y="0" type="line"/>
			<point x="488" y="0" type="line"/>
			<point x="452" y="316" type="line"/>
			<point x="322" y="316" type="line"/>
		</contour>
	</outline>
</glyph>
<glyph name="N" format="2">
	<advance width="635"/>
	<unicode hex="004E"/>
	<anchor x="318" y="619" name="top"/>
	<note>
		N
	</note>
	<outline>
		<contour>
			<point x="472" y="620" type="line"/>
			<point x="472" y="80" type="line"/>
			<point x="417" y="85"/>
			<point x="395" y="137"/>
			<point x="384" y="206" type="curve" smooth="yes"/>
			<point x="356" y="385" type="line" smooth="yes"/>
			<point x="333" y="530"/>
			<point x="297" y="630"/>
			<point x="153" y="630" type="curve" smooth="yes"/>
			<point x="73" y="630" type="line"/>
			<point x="73" y="0" type="line"/>
			<point x="163" y="0" type="line"/>
			<point x="163" y="540" type="line"/>
			<point x="235" y="536"/>
			<point x="250" y="468"/>
			<point x="265" y="378" type="curve" smooth="yes"/>
			<point x="296" y="188" type="line" smooth="yes"/>
			<point x="315" y="74"/>
			<point x="360" y="-10"/>
			<point x="484" y="-10" type="curve" smooth="yes"/>
			<point x="562" y="-10" type="line"/>
			<point x="562" y="620" type="line"/>
		</contour>
	</outline>
</glyph>
<glyph name="O" format="2">
	<advance width="685"/>
	<unicode hex="004F"/>
	<anchor x="342" y="629" name="top"/>
	<note>
		O
	</note>
	<outline>
		<contour>
			<point x="642" y="492"/>
			<point x="511" y="628"/>
			<point x="342" y="628" type="curve" smooth="yes"/>
			<point x="175" y="628"/>
			<point x="43" y="496"/>
			<point x="43" y="310" type="curve" smooth="yes"/>
			<point x="43" y="125"/>
			<point x="177" y="-9"/>
			<point x="342" y="-9" type="curve" smooth="yes"/>
			<point x="507" y="-9"/>
			<point x="642" y="115"/>
			<point x="642" y="310" type="curve" smooth="yes"/>
		</contour>
		<contour>
			<point x="455" y="538"/>
			<point x="547" y="453"/>
			<point x="547" y="310" type="curve" smooth="yes"/>
			<point x="547" y="168"/>
			<point x="458" y="81"/>
			<point x="342" y="81" type="curve" smooth="yes"/>
			<point x="230" y="81"/>
			<point x="138" y="168"/>
			<point x="138" y="310" type="curve" smooth="yes"/>
			<point x="138" y="442"/>
			<point x="224" y="538"/>
			<point x="342" y="538" type="curve" smooth="yes"/>
		</contour>
		<contour>
			<point x="492" y="485" type="line"/>
			<point x="455" y="449"/>
			<point x="395" y="429"/>
			<point x="342" y="429" type="curve" smooth="yes"/>
			<point x="291" y="429"/>
			<point x="231" y="449"/>
			<point x="193" y="485" type="curve"/>
			<point x="143" y="410" type="line"/>
			<point x="199" y="364"/>
			<point x="270" y="337"/>
			<point x="342" y="337" type="curve" smooth="yes"/>
			<point x="415" y="337"/>
			<point x="486" y="364"/>
			<point x="544" y="411" type="curve"/>
		</contour>
	</outline>
</glyph>
<glyph name="T" format="2">
	<advance width="455"/>
	<unicode hex="0054"/>
	<anchor x="228" y="620" name="top"/>
	<anchor x="219" y="0" name="bottom"/>
	<note>
		T
	</note>
	<outline>
		<contour>
			<point x="35" y="620" type="line"/>
			<point x="35" y="530" type="line"/>
			<point x="180" y="530" type="line"/>
			<point x="180" y="0" type="line"/>
			<point x="275" y="0" type="line"/>
			<point x="275" y="530" type="line"/>
			<point x="420" y="530" type="line"/>
			<point x="420" y="620" type="line"/>
		</contour>
		<contour>
			<point x="420" y="620" type="line"/>
			<point x="35" y="620" type="line"/>
			<point x="35" y="530" type="line"/>
			<point x="180" y="530" type="line"/>
			<point x="180" y="0" type="line"/>
			<point x="275" y="0" type="line"/>
			<point x="275" y="530" type="line"/>
			<point x="420" y="530" type="line"/>
		</contour>
	</outline>
</glyph>
<glyph name="V" format="2">
	<advance width="529"/>
	<unicode hex="0056"/>
	<note>
		V
	</note>
	<outline>
		<contour>
			<point x="390" y="620" type="line"/>
			<point x="380" y="287"/>
			<point x="326" y="119"/>
			<point x="168" y="93" type="curve"/>
			<point x="168" y="620" type="line"/>
			<point x="73" y="620" type="line"/>
			<point x="73" y="0" type="line"/>
			<point x="120" y="0" type="line" smooth="yes"/>
			<point x="376" y="0"/>
			<point x="474" y="191"/>
			<point x="484" y="620" type="curve"/>
		</contour>
	</outline>
</glyph>
<glyph name="W" format="2">
	<advance width="794"/>
	<unicode hex="0057"/>
	<anchor x="397" y="620" name="top"/>
	<note>
		W
	</note>
	<outline>
		<contour>
			<point x="626" y="93" type="line"/>
			<point x="486" y="123"/>
			<point x="441" y="315"/>
			<point x="441" y="608" type="curve" smooth="yes"/>
			<point x="441" y="620" type="line"/>
			<point x="353" y="620" type="line"/>
			<point x="353" y="608" type="line" smooth="yes"/>
			<point x="353" y="315"/>
			<point x="308" y="123"/>
			<point x="168" y="93" type="curve"/>
			<point x="168" y="620" type="line"/>
			<point x="73" y="620" type="line"/>
			<point x="73" y="0" type="line"/>
			<point x="120" y="0" type="line" smooth="yes"/>
			<point x="267" y="0"/>
			<point x="365" y="98"/>
			<point x="397" y="235" type="curve"/>
			<point x="429" y="98"/>
			<point x="527" y="0"/>
			<point x="674" y="0" type="curve" smooth="yes"/>
			<point x="721" y="0" type="line"/>
			<point x="721" y="620" type="line"/>
			<point x="626" y="620" type="line"/>
		</contour>
	</outline>
</glyph>
<glyph name="Z" format="2">
	<advance width="520"/>
	<unicode hex="005A"/>
	<anchor x="256" y="620" name="top"/>
	<note>
		Z
	</note>
	<outline>
		<contour>
			<point x="372" y="191" type="line"/>
			<point x="372" y="91" type="line"/>
			<point x="167" y="91" type="line"/>
			<point x="167" y="234" type="line"/>
			<point x="360" y="250"/>
			<point x="451" y="367"/>
			<point x="451" y="569" type="curve" smooth="yes"/>
			<point x="451" y="620" type="line"/>
			<point x="70" y="620" type="line"/>
			<point x="70" y="530" type="line"/>
			<point x="354" y="530" type="line"/>
			<point x="345" y="386"/>
			<point x="259" y="315"/>
			<point x="72" y="315" type="curve"/>
			<point x="72" y="1" type="line"/>
			<point x="457" y="1" type="line"/>
			<point x="457" y="191" type="line"/>
		</contour>
	</outline>
</glyph>
<glyph name="asciicircum" format="2">
	<advance width="373"/>
	<unicode hex="005E"/>
	<note>
		asciicircum
	</note>
	<outline>
		<contour>
			<point x="49" y="505" type="line"/>
			<point x="49" y="437" type="line"/>
			<point x="189" y="504" type="line"/>
			<point x="329" y="437" type="line"/>
			<point x="329" y="505" type="line"/>
			<point x="189" y="577" type="line"/>
		</contour>
	</outline>
</glyph>
<glyph name="g" format="2">
	<advance width="509"/>
	<unicode hex="0067"/>
	<anchor x="266" y="467" name="top"/>
	<note>
		g
	</note>
	<outline>
		<contour>
			<point x="442" y="467" type="line"/>
			<point x="75" y="467" type="line"/>
			<point x="75" y="-10" type="line"/>
			<point x="122" y="-10" type="line" smooth="yes"/>
			<point x="204" y="-10"/>
			<point x="280" y="2"/>
			<point x="347" y="50" type="curve"/>
			<point x="347" y="-92" type="line"/>
			<point x="87" y="-92" type="line"/>
			<point x="67" y="-182" type="line"/>
			<point x="442" y="-182" type="line"/>
		</contour>
		<contour>
			<point x="347" y="235" type="line" smooth="yes"/>
			<point x="347" y="152"/>
			<point x="309" y="83"/>
			<point x="170" y="84" type="curve"/>
			<point x="170" y="377" type="line"/>
			<point x="347" y="377" type="line"/>
		</contour>
	</outline>
</glyph>
<glyph name="l" format="2">
	<advance width="229"/>
	<unicode hex="006C"/>
	<anchor x="115" y="670" name="top"/>
	<anchor x="115" y="0" name="bottom"/>
	<note>
		l
	</note>
	<outline>
		<contour>
			<point x="67" y="0" type="line"/>
			<point x="162" y="0" type="line"/>
			<point x="162" y="670" type="line"/>
			<point x="67" y="670" type="line"/>
		</contour>
	</outline>
</glyph>
<glyph name="m" format="2">
	<advance width="798"/>
	<unicode hex="006D"/>
	<note>
		m
	</note>
	<outline>
		<contour>
			<point x="670" y="477" type="curve" smooth="yes"/>
			<point x="489" y="477"/>
			<point x="445" y="411"/>
			<point x="437" y="194" type="curve" smooth="yes"/>
			<point x="434" y="113" type="line" smooth="yes"/>
			<point x="433" y="94"/>
			<point x="418" y="78"/>
			<point x="399" y="78" type="curve" smooth="yes"/>
			<point x="380" y="78"/>
			<point x="365" y="94"/>
			<point x="364" y="113" type="curve" smooth="yes"/>
			<point x="361" y="194" type="line" smooth="yes"/>
			<point x="353" y="411"/>
			<point x="309" y="477"/>
			<point x="128" y="477" type="curve" smooth="yes"/>
			<point x="109" y="477"/>
			<point x="89" y="476"/>
			<point x="67" y="475" type="curve"/>
			<point x="67" y="0" type="line"/>
			<point x="162" y="0" type="line"/>
			<point x="162" y="380" type="line"/>
			<point x="231" y="380"/>
			<point x="259" y="351"/>
			<point x="263" y="251" type="curve" smooth="yes"/>
			<point x="266" y="169" type="line" smooth="yes"/>
			<point x="270" y="72"/>
			<point x="296" y="-10"/>
			<point x="399" y="-10" type="curve" smooth="yes"/>
			<point x="502" y="-10"/>
			<point x="528" y="72"/>
			<point x="532" y="169" type="curve" smooth="yes"/>
			<point x="535" y="251" type="line" smooth="yes"/>
			<point x="539" y="351"/>
			<point x="567" y="380"/>
			<point x="636" y="380" type="curve"/>
			<point x="636" y="0" type="line"/>
			<point x="731" y="0" type="line"/>
			<point x="731" y="475" type="line"/>
			<point x="709" y="476"/>
			<point x="689" y="477"/>
		</contour>
	</outline>
</glyph>
<glyph name="q" format="2">
	<advance width="507"/>
	<unicode hex="0071"/>
	<note>
		q
	</note>
	<outline>
		<contour>
			<point x="440" y="466" type="line"/>
			<point x="345" y="467" type="line"/>
			<point x="345" y="-191" type="line"/>
			<point x="440" y="-191" type="line"/>
		</contour>
		<contour>
			<point x="238" y="-10" type="curve" smooth="yes"/>
			<point x="318" y="-10"/>
			<point x="365" y="39"/>
			<point x="401" y="84" type="curve" smooth="yes"/>
			<point x="425" y="115"/>
			<point x="440" y="132"/>
			<point x="440" y="172" type="curve" smooth="yes"/>
			<point x="440" y="467" type="line"/>
			<point x="67" y="467" type="line"/>
			<point x="67" y="172" type="line" smooth="yes"/>
			<point x="67" y="72"/>
			<point x="138" y="-10"/>
		</contour>
		<contour>
			<point x="253" y="81" type="curve" smooth="yes"/>
			<point x="205" y="81"/>
			<point x="162" y="119"/>
			<point x="162" y="167" type="curve" smooth="yes"/>
			<point x="162" y="377" type="line"/>
			<point x="345" y="377" type="line"/>
			<point x="345" y="167" type="line" smooth="yes"/>
			<point x="345" y="119"/>
			<point x="301" y="81"/>
		</contour>
	</outline>
</glyph>
<glyph name="r" format="2">
	<advance width="367"/>
	<unicode hex="0072"/>
	<anchor x="204" y="467" name="top"/>
	<anchor x="117" y="0" name="bottom"/>
	<note>
		r
	</note>
	<outline>
		<contour>
			<point x="337" y="477" type="line"/>
			<point x="254" y="477"/>
			<point x="190" y="452"/>
			<point x="138" y="385" type="curve"/>
			<point x="162" y="365" type="line"/>
			<point x="162" y="467" type="line"/>
			<point x="67" y="467" type="line"/>
			<point x="67" y="0" type="line"/>
			<point x="162" y="0" type="line"/>
			<point x="162" y="230" type="line" smooth="yes"/>
			<point x="162" y="325"/>
			<point x="216" y="382"/>
			<point x="337" y="382" type="curve"/>
		</contour>
	</outline>
</glyph>
<glyph name="s" format="2">
	<advance width="430"/>
	<unicode hex="0073"/>
	<anchor x="222" y="0" name="bottom"/>
	<note>
		s
	</note>
	<outline>
		<contour>
			<point x="387" y="203"/>
			<point x="325" y="297"/>
			<point x="140" y="283" type="curve"/>
			<point x="139" y="314" type="line" smooth="yes"/>
			<point x="138" y="353"/>
			<point x="170" y="387"/>
			<point x="219" y="387" type="curve" smooth="yes"/>
			<point x="245" y="387"/>
			<point x="290" y="373"/>
			<point x="304" y="320" type="curve"/>
			<point x="391" y="364" type="line"/>
			<point x="353" y="448"/>
			<point x="281" y="477"/>
			<point x="219" y="477" type="curve" smooth="yes"/>
			<point x="117" y="477"/>
			<point x="46" y="420"/>
			<point x="46" y="309" type="curve" smooth="yes"/>
			<point x="46" y="184" type="line"/>
			<point x="265" y="223"/>
			<point x="292" y="152"/>
			<point x="292" y="90" type="curve" smooth="yes"/>
			<point x="292" y="89" type="line"/>
			<point x="46" y="89" type="line"/>
			<point x="46" y="0" type="line"/>
			<point x="387" y="0" type="line"/>
			<point x="387" y="74" type="line" smooth="yes"/>
		</contour>
	</outline>
</glyph>
<glyph name="t" format="2">
	<advance width="382"/>
	<unicode hex="0074"/>
	<anchor x="202" y="0" name="bottom"/>
	<note>
		t
	</note>
	<outline>
		<contour>
			<point x="337" y="477" type="line"/>
			<point x="282" y="476"/>
			<point x="209" y="460"/>
			<point x="162" y="413" type="curve"/>
			<point x="162" y="547" type="line"/>
			<point x="67" y="547" type="line"/>
			<point x="67" y="0" type="line"/>
			<point x="332" y="0" type="line"/>
			<point x="332" y="90" type="line"/>
			<point x="162" y="90" type="line"/>
			<point x="162" y="236" type="line" smooth="yes"/>
			<point x="162" y="314"/>
			<point x="207" y="382"/>
			<point x="337" y="382" type="curve"/>
		</contour>
	</outline>
</glyph>
<glyph name="bar" format="2">
	<advance width="168"/>
	<unicode hex="007C"/>
	<note>
		bar
	</note>
	<outline>
		<contour>
			<point x="41" y="652" type="line"/>
			<point x="41" y="-53" type="line"/>
			<point x="121" y="-53" type="line"/>
			<point x="121" y="652" type="line"/>
		</contour>
	</outline>
</glyph>
<glyph name="asciitilde" format="2">
	<advance width="455"/>
	<unicode hex="007E"/>
	<note>
		asciitilde
	</note>
	<outline>
		<contour>
			<point x="318" y="320" type="line" smooth="yes"/>
			<point x="312" y="307"/>
			<point x="296" y="296"/>
			<point x="274" y="311" type="curve" smooth="yes"/>
			<point x="227" y="342" type="line" smooth="yes"/>
			<point x="163" y="384"/>
			<point x="93" y="364"/>
			<point x="58" y="294" type="curve" smooth="yes"/>
			<point x="40" y="258" type="line"/>
			<point x="121" y="220" type="line"/>
			<point x="137" y="253" type="line" smooth="yes"/>
			<point x="143" y="266"/>
			<point x="159" y="277"/>
			<point x="181" y="262" type="curve" smooth="yes"/>
			<point x="228" y="231" type="line" smooth="yes"/>
			<point x="294" y="189"/>
			<point x="362" y="207"/>
			<point x="400" y="286" type="curve" smooth="yes"/>
			<point x="415" y="315" type="line"/>
			<point x="334" y="351" type="line"/>
		</contour>
	</outline>
</glyph>
<glyph name="section" format="2">
	<advance width="511"/>
	<unicode hex="00A7"/>
	<outline>
		<contour>
			<point x="164" y="430" type="line" smooth="yes"/>
			<point x="164" y="501"/>
			<point x="197" y="539"/>
			<point x="258" y="539" type="curve" smooth="yes"/>
			<point x="305" y="539"/>
			<point x="353" y="520"/>
			<point x="376" y="454" type="curve"/>
			<point x="456" y="501" type="line"/>
			<point x="420" y="586"/>
			<point x="344" y="629"/>
			<point x="259" y="629" type="curve" smooth="yes"/>
			<point x="141" y="629"/>
			<point x="68" y="550"/>
			<point x="69" y="437" type="curve" smooth="yes"/>
			<point x="70" y="326" type="line"/>
			<point x="117" y="330" type="line" smooth="yes"/>
			<point x="238" y="340"/>
			<point x="346" y="346"/>
			<point x="346" y="218" type="curve" smooth="yes"/>
			<point x="346" y="218" type="line"/>
			<point x="345" y="178" type="line"/>
			<point x="345" y="128" type="line"/>
			<point x="441" y="128" type="line"/>
			<point x="441" y="224" type="line" smooth="yes"/>
			<point x="441" y="384"/>
			<point x="314" y="432"/>
			<point x="164" y="420" type="curve"/>
		</contour>
		<contour>
			<point x="347" y="52" type="line" smooth="yes"/>
			<point x="347" y="-19"/>
			<point x="314" y="-57"/>
			<point x="253" y="-57" type="curve" smooth="yes"/>
			<point x="206" y="-57"/>
			<point x="158" y="-38"/>
			<point x="135" y="28" type="curve"/>
			<point x="55" y="-19" type="line"/>
			<point x="91" y="-104"/>
			<point x="167" y="-147"/>
			<point x="252" y="-147" type="curve" smooth="yes"/>
			<point x="370" y="-147"/>
			<point x="443" y="-68"/>
			<point x="442" y="45" type="curve" smooth="yes"/>
			<point x="441" y="156" type="line"/>
			<point x="394" y="152" type="line" smooth="yes"/>
			<point x="273" y="142"/>
			<point x="165" y="136"/>
			<point x="165" y="264" type="curve" smooth="yes"/>
			<point x="165" y="264" type="line"/>
			<point x="165" y="281" type="line"/>
			<point x="165" y="350" type="line"/>
			<point x="70" y="354" type="line"/>
			<point x="70" y="258" type="line" smooth="yes"/>
			<point x="70" y="98"/>
			<point x="197" y="50"/>
			<point x="347" y="62" type="curve"/>
		</contour>
	</outline>
</glyph>
<glyph name="dieresis" format="2">
	<advance width="392"/>
	<unicode hex="00A8"/>
	<anchor x="204" y="467" name="_top"/>
	<note>
		dieresis
	</note>
	<outline>
		<contour>
			<point x="73" y="527" type="line"/>
			<point x="174" y="527" type="line"/>
			<point x="174" y="627" type="line"/>
			<point x="73" y="627" type="line"/>
		</contour>
		<contour>
			<point x="234" y="627" type="line"/>
			<point x="234" y="527" type="line"/>
			<point x="335" y="527" type="line"/>
			<point x="335" y="627" type="line"/>
		</contour>
	</outline>
</glyph>
<glyph name="guillemotleft" format="2">
	<advance width="434"/>
	<unicode hex="00AB"/>
	<note>
		guillemotleft
	</note>
	<outline>
		<contour>
			<point x="206" y="467" type="line"/>
			<point x="115" y="467" type="line"/>
			<point x="10" y="306" type="line"/>
			<point x="116" y="143" type="line"/>
			<point x="206" y="143" type="line"/>
			<point x="110" y="306" type="line"/>
		</contour>
		<contour>
			<point x="298" y="306" type="line"/>
			<point x="393" y="467" type="line"/>
			<point x="303" y="467" type="line"/>
			<point x="197" y="306" type="line"/>
			<point x="303" y="143" type="line"/>
			<point x="394" y="143" type="line"/>
		</contour>
	</outline>
</glyph>
<glyph name="registered" format="2">
	<advance width="428"/>
	<unicode hex="00AE"/>
	<outline>
		<contour>
			<point x="294" y="475" type="curve"/>
			<point x="294" y="518"/>
			<point x="257" y="554"/>
			<point x="213" y="554" type="curve" smooth="yes"/>
			<point x="169" y="554"/>
			<point x="131" y="518"/>
			<point x="131" y="475" type="curve" smooth="yes"/>
			<point x="131" y="342" type="line"/>
			<point x="183" y="342" type="line"/>
			<point x="183" y="416" type="line"/>
			<point x="162" y="416" type="line"/>
			<point x="177" y="403"/>
			<point x="194" y="396"/>
			<point x="213" y="396" type="curve" smooth="yes"/>
			<point x="260" y="396"/>
			<point x="294" y="432"/>
		</contour>
		<contour>
			<point x="213" y="442" type="curve" smooth="yes"/>
			<point x="196" y="442"/>
			<point x="181" y="455"/>
			<point x="181" y="475" type="curve" smooth="yes"/>
			<point x="181" y="492"/>
			<point x="196" y="506"/>
			<point x="213" y="506" type="curve" smooth="yes"/>
			<point x="230" y="506"/>
			<point x="243" y="492"/>
			<point x="243" y="475" type="curve" smooth="yes"/>
			<point x="243" y="455"/>
			<point x="230" y="442"/>
		</contour>
		<contour>
			<point x="211" y="416" type="line"/>
			<point x="233" y="390"/>
			<point x="245" y="366"/>
			<point x="252" y="342" type="curve"/>
			<point x="307" y="342" type="line"/>
			<point x="293" y="386"/>
			<point x="271" y="414"/>
			<point x="252" y="434" type="curve"/>
		</contour>
		<contour>
			<point x="214" y="630" type="curve" smooth="yes"/>
			<point x="117" y="629"/>
			<point x="40" y="569"/>
			<point x="40" y="443" type="curve" smooth="yes"/>
			<point x="40" y="434" type="line" smooth="yes"/>
			<point x="40" y="301"/>
			<point x="117" y="248"/>
			<point x="214" y="248" type="curve" smooth="yes"/>
			<point x="311" y="248"/>
			<point x="388" y="301"/>
			<point x="388" y="434" type="curve" smooth="yes"/>
			<point x="388" y="443" type="line" smooth="yes"/>
			<point x="388" y="569"/>
			<point x="311" y="629"/>
		</contour>
		<contour>
			<point x="351" y="433" type="line" smooth="yes"/>
			<point x="351" y="317"/>
			<point x="290" y="283"/>
			<point x="214" y="283" type="curve" smooth="yes"/>
			<point x="138" y="283"/>
			<point x="77" y="317"/>
			<point x="77" y="433" type="curve" smooth="yes"/>
			<point x="77" y="442" type="line" smooth="yes"/>
			<point x="77" y="550"/>
			<point x="138" y="593"/>
			<point x="214" y="593" type="curve" smooth="yes"/>
			<point x="290" y="593"/>
			<point x="351" y="550"/>
			<point x="351" y="442" type="curve" smooth="yes"/>
		</contour>
	</outline>
</glyph>
<glyph name="degree" format="2">
	<advance width="297"/>
	<unicode hex="00B0"/>
	<outline>
		<contour>
			<point x="149" y="412" type="curve" smooth="yes"/>
			<point x="208" y="412"/>
			<point x="257" y="461"/>
			<point x="257" y="521" type="curve" smooth="yes"/>
			<point x="257" y="580"/>
			<point x="208" y="629"/>
			<point x="149" y="629" type="curve" smooth="yes"/>
			<point x="89" y="629"/>
			<point x="40" y="580"/>
			<point x="40" y="521" type="curve" smooth="yes"/>
			<point x="40" y="461"/>
			<point x="89" y="412"/>
		</contour>
		<contour>
			<point x="149" y="489" type="curve" smooth="yes"/>
			<point x="131" y="489"/>
			<point x="117" y="503"/>
			<point x="117" y="521" type="curve" smooth="yes"/>
			<point x="117" y="538"/>
			<point x="131" y="552"/>
			<point x="149" y="552" type="curve" smooth="yes"/>
			<point x="166" y="552"/>
			<point x="180" y="538"/>
			<point x="180" y="521" type="curve" smooth="yes"/>
			<point x="180" y="503"/>
			<point x="166" y="489"/>
		</contour>
	</outline>
</glyph>
<glyph name="AE" format="2">
	<advance width="809"/>
	<unicode hex="00C6"/>
	<anchor x="268" y="620" name="top"/>
	<note>
		AE
	</note>
	<outline>
		<contour>
			<point x="268" y="316" type="line" smooth="yes"/>
			<point x="208" y="316"/>
			<point x="160" y="360"/>
			<point x="160" y="426" type="curve" smooth="yes"/>
			<point x="160" y="492"/>
			<point x="208" y="540"/>
			<point x="268" y="540" type="curve" smooth="yes"/>
			<point x="328" y="540"/>
			<point x="377" y="492"/>
			<point x="377" y="426" type="curve" smooth="yes"/>
			<point x="377" y="316" type="line"/>
		</contour>
		<contour>
			<point x="268" y="630" type="curve" smooth="yes"/>
			<point x="157" y="630"/>
			<point x="65" y="540"/>
			<point x="65" y="429" type="curve" smooth="yes"/>
			<point x="65" y="0" type="line"/>
			<point x="160" y="0" type="line"/>
			<point x="160" y="265" type="line"/>
			<point x="191" y="241"/>
			<point x="228" y="231"/>
			<point x="268" y="231" type="curve" smooth="yes"/>
			<point x="377" y="231" type="line"/>
			<point x="377" y="266" type="line"/>
			<point x="377" y="0" type="line"/>
			<point x="472" y="0" type="line"/>
			<point x="472" y="429" type="line" smooth="yes"/>
			<point x="472" y="540"/>
			<point x="379" y="630"/>
		</contour>
		<contour>
			<point x="472" y="90" type="line"/>
			<point x="472" y="228" type="line"/>
			<point x="690" y="228" type="line"/>
			<point x="690" y="318" type="line"/>
			<point x="472" y="318" type="line"/>
			<point x="472" y="430" type="line" smooth="yes"/>
			<point x="472" y="501"/>
			<point x="515" y="539"/>
			<point x="576" y="539" type="curve" smooth="yes"/>
			<point x="623" y="539"/>
			<point x="671" y="520"/>
			<point x="694" y="454" type="curve"/>
			<point x="774" y="501" type="line"/>
			<point x="738" y="586"/>
			<point x="662" y="629"/>
			<point x="577" y="629" type="curve" smooth="yes"/>
			<point x="469" y="629"/>
			<point x="377" y="550"/>
			<point x="377" y="437" type="curve" smooth="yes"/>
			<point x="377" y="0" type="line"/>
			<point x="750" y="0" type="line"/>
			<point x="750" y="90" type="line"/>
		</contour>
	</outline>
</glyph>
<glyph name="Eth" format="2">
	<advance width="550"/>
	<unicode hex="00D0"/>
	<outline>
		<contour>
			<point x="24" y="356" type="line"/>
			<point x="24" y="266" type="line"/>
			<point x="285" y="266" type="line"/>
			<point x="305" y="356" type="line"/>
		</contour>
		<component base="D"/>
	</outline>
</glyph>
<glyph name="multiply" format="2">
	<advance width="469"/>
	<unicode hex="00D7"/>
	<outline>
		<contour>
			<point x="297" y="289" type="line"/>
			<point x="407" y="399" type="line"/>
			<point x="344" y="462" type="line"/>
			<point x="234" y="352" type="line"/>
			<point x="127" y="459" type="line"/>
			<point x="64" y="396" type="line"/>
			<point x="171" y="289" type="line"/>
			<point x="66" y="184" type="line"/>
			<point x="129" y="121" type="line"/>
			<point x="234" y="226" type="line"/>
			<point x="342" y="118" type="line"/>
			<point x="405" y="181" type="line"/>
		</contour>
	</outline>
</glyph>
<glyph name="Oslash" format="2">
	<advance width="685"/>
	<unicode hex="00D8"/>
	<outline>
		<contour>
			<point x="343" y="628" type="curve" smooth="yes"/>
			<point x="174" y="628"/>
			<point x="43" y="492"/>
			<point x="43" y="310" type="curve" smooth="yes"/>
			<point x="43" y="115"/>
			<point x="178" y="-9"/>
			<point x="343" y="-9" type="curve" smooth="yes"/>
			<point x="508" y="-9"/>
			<point x="642" y="125"/>
			<point x="642" y="310" type="curve" smooth="yes"/>
			<point x="642" y="496"/>
			<point x="510" y="628"/>
		</contour>
		<contour>
			<point x="138" y="310" type="curve" smooth="yes"/>
			<point x="138" y="453"/>
			<point x="230" y="538"/>
			<point x="343" y="538" type="curve" smooth="yes"/>
			<point x="461" y="538"/>
			<point x="547" y="442"/>
			<point x="547" y="310" type="curve" smooth="yes"/>
			<point x="547" y="168"/>
			<point x="455" y="81"/>
			<point x="343" y="81" type="curve" smooth="yes"/>
			<point x="227" y="81"/>
			<point x="138" y="168"/>
		</contour>
		<contour>
			<point x="184" y="60" type="line"/>
			<point x="304" y="144"/>
			<point x="478" y="320"/>
			<point x="537" y="541" type="curve"/>
			<point x="448" y="538" type="line"/>
			<point x="383" y="350"/>
			<point x="235" y="199"/>
			<point x="137" y="136" type="curve"/>
		</contour>
	</outline>
</glyph>
<glyph name="germandbls" format="2">
	<advance width="567"/>
	<unicode hex="00DF"/>
	<outline>
		<contour>
			<point x="343" y="305" type="curve"/>
			<point x="345" y="350"/>
			<point x="391" y="407"/>
			<point x="490" y="407" type="curve"/>
			<point x="505" y="534"/>
			<point x="416" y="670"/>
			<point x="268" y="670" type="curve" smooth="yes"/>
			<point x="144" y="670"/>
			<point x="63" y="587"/>
			<point x="63" y="434" type="curve" smooth="yes"/>
			<point x="63" y="0" type="line"/>
			<point x="158" y="0" type="line"/>
			<point x="158" y="434" type="line" smooth="yes"/>
			<point x="158" y="529"/>
			<point x="199" y="580"/>
			<point x="269" y="580" type="curve" smooth="yes"/>
			<point x="350" y="580"/>
			<point x="395" y="519"/>
			<point x="395" y="460" type="curve"/>
			<point x="428" y="487" type="line"/>
			<point x="313" y="463"/>
			<point x="234" y="395"/>
			<point x="241" y="227" type="curve"/>
			<point x="398" y="238"/>
			<point x="422" y="162"/>
			<point x="422" y="100" type="curve" smooth="yes"/>
			<point x="422" y="90" type="line"/>
			<point x="247" y="90" type="line"/>
			<point x="247" y="0" type="line"/>
			<point x="528" y="0" type="line"/>
			<point x="528" y="64" type="line" smooth="yes"/>
			<point x="528" y="183"/>
			<point x="440" y="288"/>
		</contour>
	</outline>
</glyph>
<glyph name="ae" format="2">
	<advance width="691"/>
	<unicode hex="00E6"/>
	<anchor x="234" y="467" name="top"/>
	<note>
		ae
	</note>
	<outline>
		<contour>
			<point x="405" y="186" type="line"/>
			<point x="431" y="169"/>
			<point x="462" y="162"/>
			<point x="497" y="162" type="curve" smooth="yes"/>
			<point x="577" y="162"/>
			<point x="644" y="223"/>
			<point x="644" y="317" type="curve" smooth="yes"/>
			<point x="644" y="406"/>
			<point x="572" y="477"/>
			<point x="483" y="477" type="curve" smooth="yes"/>
			<point x="436" y="477"/>
			<point x="391" y="460"/>
			<point x="359" y="428" type="curve"/>
			<point x="327" y="461"/>
			<point x="280" y="477"/>
			<point x="227" y="477" type="curve" smooth="yes"/>
			<point x="165" y="477"/>
			<point x="83" y="447"/>
			<point x="45" y="363" type="curve"/>
			<point x="136" y="323" type="line"/>
			<point x="160" y="376"/>
			<point x="195" y="387"/>
			<point x="227" y="387" type="curve" smooth="yes"/>
			<point x="276" y="387"/>
			<point x="310" y="356"/>
			<point x="310" y="309" type="curve" smooth="yes"/>
			<point x="310" y="268" type="line"/>
			<point x="285" y="284"/>
			<point x="255" y="291"/>
			<point x="225" y="291" type="curve" smooth="yes"/>
			<point x="136" y="291"/>
			<point x="61" y="229"/>
			<point x="61" y="130" type="curve" smooth="yes"/>
			<point x="61" y="0" type="line"/>
			<point x="631" y="0" type="line"/>
			<point x="631" y="90" type="line"/>
			<point x="405" y="90" type="line"/>
		</contour>
		<contour>
			<point x="479" y="392" type="curve" smooth="yes"/>
			<point x="520" y="392"/>
			<point x="553" y="359"/>
			<point x="553" y="318" type="curve" smooth="yes"/>
			<point x="553" y="277"/>
			<point x="520" y="244"/>
			<point x="479" y="244" type="curve" smooth="yes"/>
			<point x="438" y="244"/>
			<point x="405" y="277"/>
			<point x="405" y="318" type="curve" smooth="yes"/>
			<point x="405" y="359"/>
			<point x="438" y="392"/>
		</contour>
		<contour>
			<point x="156" y="89" type="line"/>
			<point x="156" y="122" type="line" smooth="yes"/>
			<point x="156" y="168"/>
			<point x="179" y="204"/>
			<point x="233" y="204" type="curve" smooth="yes"/>
			<point x="270" y="204"/>
			<point x="310" y="183"/>
			<point x="310" y="122" type="curve" smooth="yes"/>
			<point x="310" y="89" type="line"/>
		</contour>
	</outline>
</glyph>
<glyph name="Lslash" format="2">
	<advance width="415"/>
	<unicode hex="0141"/>
	<outline>
		<contour>
			<point x="249" y="421" type="line"/>
			<point x="6" y="321" type="line"/>
			<point x="6" y="241" type="line"/>
			<point x="249" y="341" type="line"/>
		</contour>
		<component base="L"/>
	</outline>
</glyph>
<glyph name="Eng" format="2">
	<advance width="635"/>
	<unicode hex="014A"/>
	<anchor x="318" y="619" name="top"/>
	<outline>
		<contour>
			<point x="472" y="620" type="line"/>
			<point x="472" y="80" type="line"/>
			<point x="417" y="85"/>
			<point x="395" y="137"/>
			<point x="384" y="206" type="curve" smooth="yes"/>
			<point x="356" y="385" type="line" smooth="yes"/>
			<point x="333" y="530"/>
			<point x="297" y="630"/>
			<point x="153" y="630" type="curve" smooth="yes"/>
			<point x="73" y="630" type="line"/>
			<point x="73" y="0" type="line"/>
			<point x="163" y="0" type="line"/>
			<point x="163" y="540" type="line"/>
			<point x="235" y="536"/>
			<point x="250" y="468"/>
			<point x="265" y="378" type="curve" smooth="yes"/>
			<point x="296" y="188" type="line" smooth="yes"/>
			<point x="315" y="74"/>
			<point x="360" y="-10"/>
			<point x="484" y="-10" type="curve" smooth="yes"/>
			<point x="562" y="-10" type="line"/>
			<point x="562" y="620" type="line"/>
		</contour>
		<contour>
			<point x="293" y="-138" type="line"/>
			<point x="323" y="-178"/>
			<point x="374" y="-192"/>
			<point x="414" y="-192" type="curve" smooth="yes"/>
			<point x="516" y="-192"/>
			<point x="561" y="-125"/>
			<point x="561" y="-14" type="curve" smooth="yes"/>
			<point x="562" y="467" type="line"/>
			<point x="472" y="467" type="line"/>
			<point x="472" y="-23" type="line" smooth="yes"/>
			<point x="472" y="-76"/>
			<point x="457" y="-104"/>
			<point x="414" y="-104" type="curve" smooth="yes"/>
			<point x="400" y="-104"/>
			<point x="372" y="-93"/>
			<point x="360" y="-70" type="curve"/>
		</contour>
	</outline>
</glyph>
<glyph name="tbar" format="2">
	<advance width="382"/>
	<unicode hex="0167"/>
	<outline>
		<contour>
			<point x="19" y="251" type="line"/>
			<point x="19" y="171" type="line"/>
			<point x="262" y="171" type="line"/>
			<point x="262" y="251" type="line"/>
		</contour>
		<component base="t"/>
	</outline>
</glyph>
<glyph name="tilde" format="2">
	<advance width="600"/>
	<unicode hex="02DC"/>
	<anchor x="311" y="467" name="_top"/>
	<outline>
		<contour>
			<point x="382" y="613" type="line" smooth="yes"/>
			<point x="377" y="603"/>
			<point x="365" y="595"/>
			<point x="348" y="606" type="curve" smooth="yes"/>
			<point x="312" y="630" type="line" smooth="yes"/>
			<point x="263" y="662"/>
			<point x="210" y="647"/>
			<point x="183" y="593" type="curve" smooth="yes"/>
			<point x="169" y="566" type="line"/>
			<point x="231" y="537" type="line"/>
			<point x="243" y="562" type="line" smooth="yes"/>
			<point x="248" y="572"/>
			<point x="260" y="580"/>
			<point x="277" y="569" type="curve" smooth="yes"/>
			<point x="313" y="545" type="line" smooth="yes"/>
			<point x="363" y="513"/>
			<point x="415" y="527"/>
			<point x="444" y="587" type="curve" smooth="yes"/>
			<point x="456" y="609" type="line"/>
			<point x="394" y="637" type="line"/>
		</contour>
	</outline>
</glyph>
<glyph name="commaturnedabovecomb" format="2">
	<advance width="346"/>
	<unicode hex="0312"/>
	<anchor x="143" y="467" name="_top"/>
	<outline>
		<contour>
			<point x="100" y="537" type="curve"/>
			<point x="189" y="537" type="line"/>
			<point x="190" y="595"/>
			<point x="208" y="654"/>
			<point x="246" y="703" type="curve"/>
			<point x="180" y="736" type="line"/>
			<point x="133" y="679"/>
			<point x="104" y="614"/>
		</contour>
	</outline>
</glyph>
<glyph name="ogonekcomb" format="2">
	<advance width="600"/>
	<unicode hex="0328"/>
	<anchor x="420" y="0" name="_ogonek"/>
	<outline>
		<contour>
			<point x="377" y="0" type="line"/>
			<point x="345" y="-21"/>
			<point x="334" y="-44"/>
			<point x="334" y="-70" type="curve" smooth="yes"/>
			<point x="334" y="-109"/>
			<point x="364" y="-147"/>
			<point x="438" y="-147" type="curve" smooth="yes"/>
			<point x="454" y="-147"/>
			<point x="473" y="-145"/>
			<point x="493" y="-141" type="curve"/>
			<point x="493" y="-71" type="line"/>
			<point x="455" y="-82"/>
			<point x="421" y="-78"/>
			<point x="416" y="-54" type="curve" smooth="yes"/>
			<point x="412" y="-33"/>
			<point x="427" y="-15"/>
			<point x="472" y="0" type="curve"/>
		</contour>
	</outline>
</glyph>
<glyph name="Germandbls" format="2">
	<advance width="563"/>
	<unicode hex="1E9E"/>
	<outline>
		<contour>
			<point x="467" y="429" type="curve" smooth="yes"/>
			<point x="467" y="542"/>
			<point x="378" y="630"/>
			<point x="264" y="630" type="curve" smooth="yes"/>
			<point x="150" y="630"/>
			<point x="63" y="543"/>
			<point x="63" y="418" type="curve" smooth="yes"/>
			<point x="63" y="0" type="line"/>
			<point x="158" y="0" type="line"/>
			<point x="158" y="294" type="line"/>
			<point x="138" y="283" type="line"/>
			<point x="176" y="244"/>
			<point x="229" y="228"/>
			<point x="274" y="228" type="curve" smooth="yes"/>
			<point x="383" y="228"/>
			<point x="467" y="314"/>
		</contour>
		<contour>
			<point x="266" y="318" type="curve" smooth="yes"/>
			<point x="207" y="318"/>
			<point x="159" y="367"/>
			<point x="159" y="430" type="curve" smooth="yes"/>
			<point x="159" y="492"/>
			<point x="207" y="540"/>
			<point x="266" y="540" type="curve" smooth="yes"/>
			<point x="324" y="540"/>
			<point x="372" y="492"/>
			<point x="372" y="430" type="curve" smooth="yes"/>
			<point x="372" y="367"/>
			<point x="324" y="318"/>
		</contour>
		<contour>
			<point x="356" y="345" type="line"/>
			<point x="334" y="318"/>
			<point x="299" y="298"/>
			<point x="247" y="305" type="curve"/>
			<point x="272" y="228" type="line"/>
			<point x="416" y="220"/>
			<point x="433" y="168"/>
			<point x="433" y="90" type="curve" smooth="yes"/>
			<point x="433" y="89" type="line"/>
			<point x="237" y="89" type="line"/>
			<point x="237" y="0" type="line"/>
			<point x="528" y="0" type="line"/>
			<point x="528" y="74" type="line" smooth="yes"/>
			<point x="528" y="223"/>
			<point x="436" y="303"/>
			<point x="341" y="303" type="curve"/>
			<point x="370" y="307"/>
			<point x="394" y="315"/>
			<point x="415" y="326" type="curve"/>
		</contour>
	</outline>
</glyph>
<glyph name="endash" format="2">
	<advance width="583"/>
	<unicode hex="2013"/>
	<outline>
		<contour>
			<point x="45" y="346" type="line"/>
			<point x="45" y="266" type="line"/>
			<point x="538" y="266" type="line"/>
			<point x="538" y="346" type="line"/>
		</contour>
	</outline>
</glyph>
<glyph name="quoteright" format="2">
	<advance width="207"/>
	<unicode hex="2019"/>
	<outline>
		<contour>
			<point x="164" y="620" type="curve"/>
			<point x="73" y="620" type="line"/>
			<point x="83" y="552"/>
			<point x="74" y="492"/>
			<point x="40" y="436" type="curve"/>
			<point x="112" y="397" type="line"/>
			<point x="154" y="463"/>
			<point x="176" y="530"/>
		</contour>
	</outline>
</glyph>
<glyph name="quotedblleft" format="2">
	<advance width="367"/>
	<unicode hex="201C"/>
	<note>
		quotedblleft
	</note>
	<outline>
		<contour>
			<point x="43" y="415" type="curve"/>
			<point x="134" y="415" type="line"/>
			<point x="124" y="483"/>
			<point x="133" y="543"/>
			<point x="167" y="599" type="curve"/>
			<point x="95" y="638" type="line"/>
			<point x="53" y="572"/>
			<point x="31" y="505"/>
		</contour>
		<contour>
			<point x="203" y="415" type="curve"/>
			<point x="294" y="415" type="line"/>
			<point x="284" y="483"/>
			<point x="293" y="543"/>
			<point x="327" y="599" type="curve"/>
			<point x="255" y="638" type="line"/>
			<point x="213" y="572"/>
			<point x="191" y="505"/>
		</contour>
	</outline>
</glyph>
<glyph name="daggerdbl" format="2">
	<advance width="403"/>
	<unicode hex="2021"/>
	<outline>
		<contour>
			<point x="249" y="385" type="line" smooth="yes"/>
			<point x="249" y="432"/>
			<point x="281" y="455"/>
			<point x="337" y="468" type="curve" smooth="yes"/>
			<point x="383" y="479" type="line"/>
			<point x="357" y="572" type="line"/>
			<point x="310" y="557" type="line" smooth="yes"/>
			<point x="288" y="550"/>
			<point x="267" y="543"/>
			<point x="249" y="533" type="curve"/>
			<point x="249" y="703" type="line"/>
			<point x="154" y="703" type="line"/>
			<point x="154" y="538" type="line"/>
			<point x="136" y="548"/>
			<point x="115" y="555"/>
			<point x="93" y="562" type="curve" smooth="yes"/>
			<point x="46" y="577" type="line"/>
			<point x="20" y="484" type="line"/>
			<point x="66" y="473" type="line" smooth="yes"/>
			<point x="122" y="460"/>
			<point x="154" y="437"/>
			<point x="154" y="390" type="curve" smooth="yes"/>
			<point x="154" y="170" type="line" smooth="yes"/>
			<point x="154" y="123"/>
			<point x="122" y="100"/>
			<point x="66" y="87" type="curve" smooth="yes"/>
			<point x="20" y="76" type="line"/>
			<point x="46" y="-17" type="line"/>
			<point x="93" y="-2" type="line" smooth="yes"/>
			<point x="115" y="5"/>
			<point x="136" y="12"/>
			<point x="154" y="22" type="curve"/>
			<point x="154" y="-143" type="line"/>
			<point x="249" y="-143" type="line"/>
			<point x="249" y="27" type="line"/>
			<point x="267" y="17"/>
			<point x="288" y="10"/>
			<point x="310" y="3" type="curve" smooth="yes"/>
			<point x="357" y="-12" type="line"/>
			<point x="383" y="81" type="line"/>
			<point x="337" y="92" type="line" smooth="yes"/>
			<point x="281" y="105"/>
			<point x="249" y="128"/>
			<point x="249" y="175" type="curve" smooth="yes"/>
		</contour>
	</outline>
</glyph>
<glyph name="caroncomb.alt" format="2">
	<advance width="190"/>
	<outline>
		<contour>
			<point x="133" y="620" type="curve"/>
			<point x="48" y="620" type="line"/>
			<point x="47" y="594"/>
			<point x="41" y="537"/>
			<point x="31" y="481" type="curve"/>
			<point x="87" y="460" type="line"/>
			<point x="112" y="524"/>
			<point x="129" y="584"/>
		</contour>
	</outline>
</glyph>
